<svg width="146" height="46" viewBox="0 0 146 46" fill="none" xmlns="http://www.w3.org/2000/svg">
  <style>
    @media (prefers-color-scheme: dark) {
        .text {
            fill: #FFFFFF;
        }
    }
  </style>
<path d="M61.7936 19.1481C62.6349 19.9982 63.0562 21.1496 63.0562 22.6452V29.7109H60.0382V23.0143C60.0382 21.4711 59.1267 20.6436 57.7224 20.6436C56.1559 20.6436 55.1487 21.5866 55.1487 23.4965V29.7109H52.1307V13.6004H55.1487V19.4921C55.8751 18.411 57.0432 17.8811 58.6352 17.8811C59.9208 17.8811 60.974 18.2955 61.7936 19.1481Z" fill="#231F20" class="text"/>
<path d="M73.3447 18.2038H76.3627V29.7109H73.3447V28.4214C72.617 29.5025 71.4501 30.0286 69.8582 30.0286C68.5726 30.0286 67.5193 29.6143 66.6768 28.7629C65.8584 27.9115 65.4371 26.7613 65.4371 25.2658V18.2038H68.4551V24.9004C68.4551 26.4424 69.3679 27.2711 70.771 27.2711C72.3387 27.2711 73.3447 26.3269 73.3447 24.417V18.2038Z" fill="#231F20" class="text"/>
<path d="M83.9358 22.7381C85.6452 23.0822 87.8666 23.8883 87.8436 26.3507C87.8436 27.5236 87.3993 28.444 86.4865 29.0894C85.5929 29.7172 84.4745 30.0324 83.1404 30.0324C80.7314 30.0324 79.0934 29.112 78.2279 27.295L80.8488 25.8447C81.1986 26.8329 81.948 27.3402 83.1404 27.3402C84.2166 27.3402 84.7554 27.0188 84.7554 26.3507C84.7554 25.7292 83.8196 25.3839 82.6272 25.085C80.8948 24.648 78.7194 23.9348 78.7194 21.5414C78.7194 20.4113 79.1407 19.516 79.982 18.8718C80.8488 18.2038 81.897 17.8811 83.1647 17.8811C85.0592 17.8811 86.6984 18.7601 87.61 20.3222L85.0362 21.7034C84.6622 20.9211 84.0302 20.5294 83.1647 20.5294C82.3987 20.5294 81.8076 20.8985 81.8076 21.4724C81.8089 22.0939 82.7421 22.438 83.9358 22.7381Z" fill="#231F20" class="text"/>
<path d="M98.5061 18.2038H101.525V29.711H98.5061V28.3536C97.5946 29.4837 96.3358 30.0324 94.6928 30.0324C93.1251 30.0324 91.7922 29.4573 90.6688 28.2832C89.5696 27.1092 89.0092 25.6589 89.0092 23.9574C89.0092 22.2559 89.5709 20.827 90.6688 19.6541C91.7922 18.4801 93.1251 17.8811 94.6928 17.8811C96.3294 17.8811 97.5946 18.4349 98.5061 19.5625V18.2038ZM95.2558 27.2021C96.192 27.2021 96.9639 26.9028 97.5716 26.3043C98.2023 25.684 98.5061 24.9004 98.5061 23.9574C98.5061 23.0144 98.2023 22.2321 97.5716 21.6319C96.9627 21.0115 96.1903 20.7127 95.2558 20.7127C94.3213 20.7127 93.5464 21.0115 92.9387 21.6319C92.3297 22.2321 92.0259 23.0131 92.0259 23.9574C92.0259 24.9017 92.3297 25.684 92.9387 26.3043C93.5464 26.9037 94.3187 27.2029 95.2558 27.2021Z" fill="#231F20" class="text"/>
<path d="M107.273 20.184C107.835 18.7111 109.239 17.974 110.828 17.974V21.2878C109.961 21.1611 109.076 21.3582 108.349 21.8403C107.624 22.3237 107.273 23.1048 107.273 24.211V29.7109H104.255V18.2038H107.273V20.184Z" fill="#231F20" class="text"/>
<path d="M122.242 19.1481C123.084 19.9982 123.505 21.1497 123.505 22.6452V29.711H120.491V23.0144C120.491 21.4711 119.58 20.6436 118.174 20.6436C116.608 20.6436 115.6 21.5866 115.6 23.4966V29.711H112.576V18.2038H115.594V19.4922C116.32 18.411 117.49 17.8811 119.081 17.8811C120.37 17.8811 121.423 18.2955 122.242 19.1481Z" fill="#231F20" class="text"/>
<path d="M128.624 25.1767C129.021 26.627 130.121 27.3402 131.921 27.3402C133.07 27.3402 133.964 26.9484 134.542 26.1888L136.975 27.57C135.826 29.2024 134.121 30.0324 131.875 30.0324C129.933 30.0324 128.389 29.4573 127.219 28.3058C126.05 27.1544 125.47 25.7066 125.47 23.9574C125.47 22.2321 126.055 20.7817 127.2 19.6303C128.349 18.4575 129.845 17.8811 131.647 17.8811C133.355 17.8811 134.781 18.4575 135.881 19.6303C137.003 20.8044 137.566 22.2321 137.566 23.9574C137.559 24.3662 137.52 24.7738 137.449 25.1767H128.624ZM134.542 22.8712C134.191 21.3054 133.022 20.5457 131.642 20.5457C130.027 20.5457 128.927 21.3983 128.578 22.8712H134.542Z" fill="#231F20" class="text"/>
<path d="M146 21.058H143.356V25.8447C143.356 27.0865 144.269 27.1091 146 27.0187V29.7109C141.859 30.1705 140.338 28.9964 140.338 25.8447V21.058H138.303V18.2038H140.338V15.8795L143.356 14.9829V18.2038H146V21.058Z" fill="#231F20" class="text"/>
<path d="M39.8761 10.755L21.3864 0.254949C21.0931 0.0879422 20.7602 0 20.4213 0C20.0823 0 19.7494 0.0879422 19.4561 0.254949L5.69768 8.06785L4.29337 8.85894C4.10855 8.96307 3.96394 9.1244 3.88208 9.3178C3.80021 9.5112 3.78568 9.7258 3.84076 9.92817C3.89584 10.1305 4.01743 10.3093 4.18658 10.4366C4.35574 10.5639 4.56295 10.6326 4.77594 10.632C4.94441 10.6325 5.11001 10.5892 5.25596 10.5064L16.0194 4.41882C16.0783 4.38525 16.1335 4.34569 16.1841 4.30079L19.4548 2.44236V10.3771L9.61443 15.9473L2.66309 12.017L1.3392 11.2058C1.20777 11.1252 1.05678 11.0805 0.901909 11.0766C0.747035 11.0727 0.593918 11.1096 0.458447 11.1836C0.322975 11.2575 0.210086 11.3657 0.131493 11.4971C0.0528988 11.6284 0.0114639 11.778 0.0114894 11.9304V12.3071C0.0114894 12.3372 0 12.3661 0 12.3962V33.3989C1.62633e-06 33.7324 0.0893247 34.0601 0.25898 34.3488C0.428636 34.6376 0.672636 34.8773 0.966421 35.0439L14.7849 42.8882L16.1892 43.6843C16.3355 43.7672 16.5016 43.8105 16.6705 43.8098C16.8832 43.8103 17.09 43.7416 17.2589 43.6144C17.4278 43.4873 17.5493 43.3088 17.6045 43.1068C17.6597 42.9048 17.6454 42.6905 17.564 42.4972C17.4826 42.3039 17.3386 42.1425 17.1543 42.0381L10.0562 38.0073C10.0434 37.9998 10.0281 37.996 10.0153 37.9897L3.0397 34.0293L9.66805 30.5033L16.2134 34.2201C16.4351 34.3457 16.6983 34.3796 16.9454 34.3144C17.1924 34.2492 17.403 34.0902 17.5309 33.8723C17.5944 33.7644 17.6356 33.6452 17.6523 33.5216C17.6689 33.398 17.6606 33.2724 17.6279 33.152C17.5952 33.0315 17.5387 32.9186 17.4616 32.8196C17.3845 32.7206 17.2883 32.6376 17.1786 32.5752L10.563 28.8194V21.5452C10.563 21.2934 10.4613 21.052 10.2803 20.8739C10.0993 20.6959 9.85381 20.5959 9.59784 20.5959C9.34186 20.5959 9.09637 20.6959 8.91537 20.8739C8.73438 21.052 8.63269 21.2934 8.63269 21.5452V28.8985L1.93029 32.4634V13.7926L19.3808 23.6623V41.4994V45.0969C19.3807 45.2547 19.4228 45.4098 19.5027 45.5467C19.5826 45.6836 19.6975 45.7975 19.8361 45.877C19.9747 45.9565 20.1321 45.9989 20.2926 46C20.453 46.001 20.611 45.9607 20.7506 45.883L23.0907 44.5796L23.2184 44.5105L23.9729 44.0911C23.9857 44.0848 23.992 44.0723 24.0035 44.066L39.8786 35.0501C40.1724 34.8836 40.4164 34.6439 40.5861 34.3551C40.7557 34.0663 40.8451 33.7387 40.8451 33.4052V12.3987C40.8446 12.0652 40.7548 11.7376 40.5847 11.4491C40.4146 11.1605 40.1702 10.9212 39.8761 10.755ZM11.5498 17.0423L20.42 12.0258L27.0943 15.8155C27.3159 15.9417 27.5794 15.9761 27.8268 15.9113C28.0743 15.8464 28.2854 15.6875 28.4137 15.4695C28.542 15.2516 28.5771 14.9924 28.5111 14.749C28.4452 14.5056 28.2836 14.298 28.062 14.1718L21.3953 10.3859V2.45115L38.1705 11.9768L20.314 21.9985L11.5498 17.0423ZM21.3136 43.3929V23.6246L30.2783 18.5931V28.8207L23.2567 32.8062C23.147 32.8692 23.0511 32.9528 22.9743 33.0523C22.8975 33.1518 22.8414 33.2651 22.8091 33.3859C22.7769 33.5067 22.7692 33.6326 22.7864 33.7563C22.8036 33.8801 22.8454 33.9993 22.9094 34.1071C22.9735 34.215 23.0585 34.3093 23.1596 34.3849C23.2608 34.4604 23.376 34.5156 23.4988 34.5473C23.6216 34.579 23.7496 34.5866 23.8754 34.5697C24.0012 34.5528 24.1224 34.5117 24.232 34.4487L31.2536 30.4581L37.7032 34.0858L21.3136 43.3929ZM38.9135 32.5777L32.2111 28.8106V17.5094L38.9135 13.7423V32.5777Z" fill="#EC1C24"/>
</svg>
